<?xml version="1.0" encoding="utf-8"?>
<!-- Generator: Adobe Illustrator 22.1.0, SVG Export Plug-In . SVG Version: 6.00 Build 0)  -->
<svg version="1.1" id="图层_1" xmlns="http://www.w3.org/2000/svg" xmlns:xlink="http://www.w3.org/1999/xlink" x="0px" y="0px"
	 viewBox="0 0 150 50" style="enable-background:new 0 0 150 50;" xml:space="preserve">
<style type="text/css">
	.st0{fill:url(#SVGID_1_);}
	.st1{fill:url(#SVGID_2_);}
</style>
<g>
	<path d="M71.9,38.8h-1.6L69,29.4l-4.7,9.5h-0.5l-4.7-9.5l-1.3,9.5h-1.6l2-13.9h0.4l5.5,11l5.4-11H70L71.9,38.8z"/>
	<path d="M84.5,38.8h-1.5v-1.5c-1.1,1.2-2.4,1.9-3.9,1.9c-1.5,0-2.7-0.5-3.8-1.6s-1.6-2.4-1.6-3.9s0.5-2.8,1.6-3.9
		c1.1-1.1,2.3-1.6,3.8-1.6s2.8,0.6,3.8,1.8v-1.6h1.5V38.8z M79.1,37.7c1.1,0,2-0.4,2.7-1.1c0.8-0.8,1.1-1.7,1.1-2.8
		s-0.4-2.1-1.1-2.8c-0.7-0.8-1.7-1.2-2.7-1.2s-2,0.4-2.7,1.2c-0.7,0.8-1.1,1.7-1.1,2.8c0,1.1,0.4,2,1.1,2.8
		C77.2,37.3,78.1,37.7,79.1,37.7z"/>
	<path d="M92,28.2c1.5,0,2.8,0.5,3.8,1.6c1,1.1,1.6,2.4,1.6,3.9c0,1.5-0.5,2.8-1.5,3.9s-2.3,1.6-3.8,1.6c-1.5,0-2.8-0.5-3.8-1.6
		c-1-1.1-1.6-2.4-1.6-3.9c0-1.5,0.5-2.8,1.6-3.9C89.3,28.8,90.5,28.2,92,28.2z M92,37.7c1.1,0,1.9-0.4,2.7-1.1
		c0.7-0.8,1.1-1.7,1.1-2.8s-0.4-2-1.1-2.8s-1.6-1.2-2.7-1.2s-1.9,0.4-2.7,1.2s-1.1,1.7-1.1,2.8c0,1.1,0.4,2,1.1,2.8
		C90.1,37.3,91,37.7,92,37.7z"/>
	<path d="M109.7,36.7c-0.5,0.8-1.3,1.4-2.1,1.8c-0.9,0.4-1.8,0.6-2.9,0.6c-1.6,0-2.9-0.5-4-1.6c-1.1-1.1-1.6-2.3-1.6-3.9
		c0-1.5,0.5-2.8,1.6-3.9c1.1-1.1,2.5-1.6,4.2-1.6c1,0,1.9,0.2,2.8,0.7c0.9,0.4,1.5,1.1,2,1.9l-1.2,0.8c-0.9-1.2-2.1-1.8-3.6-1.8
		c-1.2,0-2.2,0.4-3,1.1c-0.8,0.8-1.2,1.7-1.2,2.8c0,1.1,0.4,2.1,1.2,2.9s1.8,1.2,3,1.2c1.4,0,2.7-0.6,3.6-1.8L109.7,36.7z"/>
	<path d="M113.2,38.8h-1.6V24.6h1.6V38.8z"/>
	<path d="M120.6,28.2c1.5,0,2.8,0.5,3.8,1.6c1,1.1,1.6,2.4,1.6,3.9c0,1.5-0.5,2.8-1.5,3.9s-2.3,1.6-3.8,1.6c-1.5,0-2.8-0.5-3.8-1.6
		c-1-1.1-1.6-2.4-1.6-3.9c0-1.5,0.5-2.8,1.6-3.9C117.8,28.8,119.1,28.2,120.6,28.2z M120.6,37.7c1.1,0,1.9-0.4,2.7-1.1
		c0.7-0.8,1.1-1.7,1.1-2.8s-0.4-2-1.1-2.8s-1.6-1.2-2.7-1.2s-1.9,0.4-2.7,1.2s-1.1,1.7-1.1,2.8c0,1.1,0.4,2,1.1,2.8
		C118.6,37.3,119.5,37.7,120.6,37.7z"/>
	<path d="M137,38.8h-1.6v-1.6c-1,1.2-2.2,1.8-3.6,1.8c-0.7,0-1.4-0.2-2-0.6c-0.6-0.4-1.1-0.9-1.4-1.6c-0.3-0.7-0.5-1.7-0.5-3.1v-5.3
		h1.6v4.9c0,1.1,0.1,1.9,0.2,2.3c0.1,0.4,0.3,0.8,0.5,1c0.2,0.3,0.5,0.5,0.8,0.6c0.3,0.1,0.7,0.2,1.2,0.2c0.5,0,0.9-0.1,1.4-0.3
		c0.4-0.2,0.8-0.5,1.1-1s0.5-0.8,0.7-1.3s0.2-1.4,0.2-2.7v-3.8h1.6V38.8z"/>
	<path d="M150,38.8h-1.5v-1.5c-1.1,1.2-2.4,1.9-3.9,1.9s-2.7-0.5-3.8-1.6c-1-1.1-1.6-2.4-1.6-3.9c0-1.5,0.5-2.8,1.6-3.9
		c1.1-1.1,2.3-1.6,3.8-1.6c1.5,0,2.8,0.6,3.8,1.8v-5.5h1.5V38.8z M144.7,37.7c1,0,1.9-0.4,2.7-1.1c0.8-0.7,1.2-1.7,1.2-2.8
		c0-1.1-0.4-2.1-1.1-2.9c-0.7-0.8-1.6-1.2-2.8-1.2c-1.1,0-2,0.4-2.8,1.2c-0.7,0.8-1.1,1.7-1.1,2.8c0,1.1,0.4,2,1.1,2.8
		S143.6,37.7,144.7,37.7z"/>
</g>
<g>
	
		<linearGradient id="SVGID_1_" gradientUnits="userSpaceOnUse" x1="61.936" y1="92.7727" x2="94.576" y2="92.7727" gradientTransform="matrix(-1 0 0 1 106 -71.25)">
		<stop  offset="0" style="stop-color:#8E3FFF"/>
		<stop  offset="1" style="stop-color:#002655"/>
	</linearGradient>
	<polygon class="st0" points="44.1,5.2 44.1,37.8 11.4,37.8 	"/>
	
		<linearGradient id="SVGID_2_" gradientUnits="userSpaceOnUse" x1="-131.4402" y1="226.0258" x2="-98.8002" y2="226.0258" gradientTransform="matrix(1 0 0 1 131.4402 -197.1432)">
		<stop  offset="0" style="stop-color:#1524FF"/>
		<stop  offset="1" style="stop-color:#00FFFB"/>
	</linearGradient>
	<polygon class="st1" points="0,12.6 0,45.2 32.6,45.2 	"/>
</g>
</svg>
